HIERARCHY
ROOT hip
{
  OFFSET 0 0 0
  CHANNELS 6 Xposition Yposition Zposition Zrotation Yrotation Xrotation
  JOINT abdomen
  {
    OFFSET 0 20.6881 -0.73152
    CHANNELS 3 Zrotation Xrotation Yrotation
    JOINT chest
    {
      OFFSET 0 11.7043 -0.48768
      CHANNELS 3 Zrotation Xrotation Yrotation
      JOINT neck
      {
        OFFSET 0 22.1894 -2.19456
        CHANNELS 3 Zrotation Xrotation Yrotation
        JOINT head
        {
          OFFSET -0.24384 7.07133 1.2192
          CHANNELS 3 Zrotation Xrotation Yrotation
          JOINT leftEye
          {
            OFFSET 4.14528 8.04674 8.04672
            CHANNELS 3 Zrotation Xrotation Yrotation
            End Site
            {
              OFFSET 1 0 0
            }
          }
          JOINT rightEye
          {
            OFFSET -3.6576 8.04674 8.04672
            CHANNELS 3 Zrotation Xrotation Yrotation
            End Site
            {
              OFFSET 1 0 0
            }
          }
        }
      }
      JOINT rCollar
      {
        OFFSET -2.68224 19.2634 -4.8768
        CHANNELS 3 Zrotation Xrotation Yrotation
        JOINT rShldr
        {
          OFFSET -8.77824 -1.95073 1.46304
          CHANNELS 3 Zrotation Xrotation Yrotation
          JOINT rForeArm
          {
            OFFSET -28.1742 -1.7115 0.48768
            CHANNELS 3 Zrotation Xrotation Yrotation
            JOINT rHand
            {
              OFFSET -22.5879 0.773209 7.07136
              CHANNELS 3 Zrotation Xrotation Yrotation
              JOINT rThumb1
              {
                OFFSET -1.2192 -0.487915 3.41376
                CHANNELS 3 Zrotation Xrotation Yrotation
                JOINT rThumb2
                {
                  OFFSET -3.37035 -0.52449 3.41376
                  CHANNELS 3 Zrotation Xrotation Yrotation
                  End Site
                  {
                    OFFSET -1.78271 -1.18214 1.43049
                  }
                }
              }
              JOINT rIndex1
              {
                OFFSET -7.75947 0.938293 5.60832
                CHANNELS 3 Zrotation Xrotation Yrotation
                JOINT rIndex2
                {
                  OFFSET -2.54057 -0.884171 1.56538
                  CHANNELS 3 Zrotation Xrotation Yrotation
                  End Site
                  {
                    OFFSET -1.62519 -0.234802 1.16502
                  }
                }
              }
              JOINT rMid1
              {
                OFFSET -8.24714 1.18213 3.41376
                CHANNELS 3 Zrotation Xrotation Yrotation
                JOINT rMid2
                {
                  OFFSET -3.10165 -0.590103 1.0647
                  CHANNELS 3 Zrotation Xrotation Yrotation
                  End Site
                  {
                    OFFSET -2.48547 -0.328903 0.83742
                  }
                }
              }
              JOINT rRing1
              {
                OFFSET -8.82822 0.546677 1.51678
                CHANNELS 3 Zrotation Xrotation Yrotation
                JOINT rRing2
                {
                  OFFSET -2.60934 -0.819778 -0.0198488
                  CHANNELS 3 Zrotation Xrotation Yrotation
                  End Site
                  {
                    OFFSET -2.33842 -0.294052 0.168128
                  }
                }
              }
              JOINT rPinky1
              {
                OFFSET -8.27202 -0.0477905 -0.4584
                CHANNELS 3 Zrotation Xrotation Yrotation
                JOINT rPinky2
                {
                  OFFSET -1.82734 -0.647385 -0.700984
                  CHANNELS 3 Zrotation Xrotation Yrotation
                  End Site
                  {
                    OFFSET -1.69225 -0.51767 -0.607171
                  }
                }
              }
            }
          }
        }
      }
      JOINT lCollar
      {
        OFFSET 2.68224 19.2634 -4.8768
        CHANNELS 3 Zrotation Xrotation Yrotation
        JOINT lShldr
        {
          OFFSET 8.77824 -1.95073 1.46304
          CHANNELS 3 Zrotation Xrotation Yrotation
          JOINT lForeArm
          {
            OFFSET 28.1742 -1.7115 0.48768
            CHANNELS 3 Zrotation Xrotation Yrotation
            JOINT lHand
            {
              OFFSET 22.5879 0.773209 7.07136
              CHANNELS 3 Zrotation Xrotation Yrotation
              JOINT lThumb1
              {
                OFFSET 1.2192 -0.487915 3.41376
                CHANNELS 3 Zrotation Xrotation Yrotation
                JOINT lThumb2
                {
                  OFFSET 3.37035 -0.52449 3.41376
                  CHANNELS 3 Zrotation Xrotation Yrotation
                  End Site
                  {
                    OFFSET 1.78271 -1.18214 1.43049
                  }
                }
              }
              JOINT lIndex1
              {
                OFFSET 7.75947 0.938293 5.60832
                CHANNELS 3 Zrotation Xrotation Yrotation
                JOINT lIndex2
                {
                  OFFSET 2.54057 -0.884171 1.56538
                  CHANNELS 3 Zrotation Xrotation Yrotation
                  End Site
                  {
                    OFFSET 1.62519 -0.234802 1.16502
                  }
                }
              }
              JOINT lMid1
              {
                OFFSET 8.24714 1.18213 3.41376
                CHANNELS 3 Zrotation Xrotation Yrotation
                JOINT lMid2
                {
                  OFFSET 3.10165 -0.590103 1.0647
                  CHANNELS 3 Zrotation Xrotation Yrotation
                  End Site
                  {
                    OFFSET 2.48547 -0.328903 0.83742
                  }
                }
              }
              JOINT lRing1
              {
                OFFSET 8.82822 0.546677 1.51678
                CHANNELS 3 Zrotation Xrotation Yrotation
                JOINT lRing2
                {
                  OFFSET 2.60934 -0.819778 -0.0198488
                  CHANNELS 3 Zrotation Xrotation Yrotation
                  End Site
                  {
                    OFFSET 2.33842 -0.294052 0.168128
                  }
                }
              }
              JOINT lPinky1
              {
                OFFSET 8.27202 -0.0477905 -0.4584
                CHANNELS 3 Zrotation Xrotation Yrotation
                JOINT lPinky2
                {
                  OFFSET 1.82734 -0.647385 -0.700984
                  CHANNELS 3 Zrotation Xrotation Yrotation
                  End Site
                  {
                    OFFSET 1.69225 -0.51767 -0.607171
                  }
                }
              }
            }
          }
        }
      }
    }
  }
  JOINT rButtock
  {
    OFFSET -8.77824 4.35084 1.2192
    CHANNELS 3 Zrotation Xrotation Yrotation
    JOINT rThigh
    {
      OFFSET 0 -1.70687 -2.19456
      CHANNELS 3 Zrotation Xrotation Yrotation
      JOINT rShin
      {
        OFFSET 0 -36.8199 0.73152
        CHANNELS 3 Zrotation Xrotation Yrotation
        JOINT rFoot
        {
          OFFSET 0.73152 -45.1104 -5.12064
          CHANNELS 3 Zrotation Xrotation Yrotation
          End Site
          {
            OFFSET -1.1221 -3.69964 12.103
          }
        }
      }
    }
  }
  JOINT lButtock
  {
    OFFSET 8.77824 4.35084 1.2192
    CHANNELS 3 Zrotation Xrotation Yrotation
    JOINT lThigh
    {
      OFFSET 0 -1.70687 -2.19456
      CHANNELS 3 Zrotation Xrotation Yrotation
      JOINT lShin
      {
        OFFSET 0 -36.8199 0.73152
        CHANNELS 3 Zrotation Xrotation Yrotation
        JOINT lFoot
        {
          OFFSET -0.73152 -45.1104 -5.12064
          CHANNELS 3 Zrotation Xrotation Yrotation
          End Site
          {
            OFFSET 1.1221 -3.69964 12.103
          }
        }
      }
    }
  }
}
MOTION
Frames:	5
Frame Time:	0.03333
24.1035 54.622099999999996 -51.214000000000006 2.666176 -12.726506 -1.110177 -4.824739 18.558222 -28.200148 6.930833 -6.381427 34.132993 8.413348 27.65684 111.001505 -37.057352 19.983302 -139.186652 3.609197 0.004274 0.135639 -1.60737 0.084203 -5.997045 3.958579 -18.067983 -4.018685 -110.701225 14.296893 114.983436 -12.967886 3.626005 -59.18141 143.207372 -56.459594 125.205156 -0.013697 -6.135392 -4.101749 -128.727577 -50.206939 113.404043 12.070225 -18.06149 3.209466 88.664838 -61.29269 32.832308 -0.784905 -2.001397 1.643884 -166.377636 -39.593274 146.684395 4.520896 13.244589 -2.214804 -0.127711 -0.140824 0.471705 -127.301652 7.141676 -149.013185 -32.406036 72.788082 89.723544 4.409288 17.086521 -6.057893 89.433828 -23.345031 165.179567 -5.100617 -5.131647 134.29521 155.72488 25.299671 -135.060803 -84.634408 -54.137466 -29.164376 12.753243 -21.930328 18.415664 56.15783 35.641218 -34.940839 -10.71023 -3.768809 -7.124412 134.643976 38.373882 -110.668366 51.634019 50.10319 -47.152089 3.504233 -3.332509 -8.050678 148.583713 -11.025296 173.9094 -6.117078 62.448224 -21.779074 21.194157 -22.98802 13.973051 177.10444 70.423084 1.795866 167.402919 9.691471 1.903875 1.164967 43.561323 66.482135 -142.587244 -33.889657 90.56542 -3.924365 2.57489 5.231554 14.394274 -15.371699 -93.61417 -72.685545 6.739839 104.005745 -62.427111 -26.823524 -2.961258
25.9609 55.118900000000004 -54.217400000000005 2.828417 -15.761217 -2.410377 -7.327227 15.921478 180.0 -5.212774 4.705588 -173.243846 7.872455 29.670313 123.690004 -35.527689 27.014013 -148.904968 9.371007 0.18119 2.210433 -3.520373 0.257618 -8.368178 -153.608113 -66.484462 178.634989 60.101278 6.784388 -13.716571 -36.491398 71.329667 69.950255 -5.091023 21.695829 -0.46787 -2.874623 -3.350292 -5.068267 88.185865 -64.816461 10.544371 162.269342 -54.290527 99.429713 -98.501269 54.691095 76.422544 -151.740332 16.923767 134.816684 66.396435 -70.434646 42.957069 3.257241 -1.169015 -5.056187 -164.610078 -15.0414 172.99971 -126.073459 -7.829863 -146.965939 -12.423074 -76.438569 -21.520676 -2.479743 -13.755753 -0.134075 -97.426202 33.63364 49.361044 4.056049 -6.75628 -100.552863 6.077362 -36.910422 6.413273 -16.122004 -10.093145 6.325305 33.317293 18.085423 -22.158063 170.669776 -21.065527 -117.038585 69.0491 58.994709 -39.58563 54.204665 45.109376 -39.616712 3.203598 26.201105 -13.283586 78.40529 62.142121 -93.178034 147.542236 30.411237 -167.343588 131.882111 -28.909013 126.149262 128.749481 8.34598 138.6383 1.488382 4.618523 -2.028082 -28.126803 -64.359544 149.3346 5.987392 -50.617722 -39.786575 47.607968 40.691241 -131.948004 122.62245 67.046257 33.419291 -122.959568 47.362264 -0.0 68.346355 45.008805 -114.038769 -154.952035 -69.666482 -71.824637
27.6524 55.9652 -57.4129 3.32248 -16.21181 -3.05855 -7.386366 20.971532 -48.951824 9.854975 -2.107186 56.745306 7.858235 20.569712 72.639968 -35.468055 -4.60721 -107.518096 15.162454 0.835601 6.272066 -6.000515 0.404339 -7.702987 -154.466673 -4.346181 164.130768 95.362004 47.532132 -84.795345 5.085309 54.446844 36.44459 -9.491526 37.038961 -0.560339 4.707136 -14.093717 -5.515201 -78.898996 9.718593 79.158435 -163.661846 -18.087159 107.290413 7.092757 -9.82839 -0.722309 90.380887 -78.655988 63.925591 -168.792182 -18.173702 150.415029 -139.95002 1.584361 -178.588771 11.526972 -62.316706 -19.511176 11.285837 0.342613 15.403653 -134.674496 -11.97283 -103.565082 7.573509 24.678421 -11.787184 66.192189 88.53545 -147.78735 163.784726 73.724137 -31.679375 161.891146 17.93075 -137.77621 -78.842093 -55.400022 -23.852361 150.327448 -16.056105 -112.144269 35.883571 19.605296 -15.130588 99.239462 27.967615 -89.088574 49.481547 44.605811 -36.65528 -21.450319 -30.432796 -4.104183 147.048714 -2.869392 -169.931755 -8.901981 29.755875 0.68819 30.56395 -36.860705 24.811377 -13.289788 -5.499776 -20.277281 0.157241 2.072471 -4.339748 -19.499657 -61.434738 68.957189 46.512573 12.154743 -177.865141 -5.173186 -24.945711 99.392708 11.958565 4.903863 12.790538 -11.584834 -17.323802 -3.715442 64.130306 67.375047 17.623904 34.118641 -65.325444 -42.502504
29.528100000000002 56.9821 -60.8961 4.66792 -19.307294 -3.471134 -14.254201 21.740423 62.756106 -3.29301 -13.009913 -52.598718 10.294885 24.771881 99.518452 -39.29189 13.963262 -127.549207 15.426864 0.772984 5.70241 -8.136167 0.494782 -6.948414 -152.477775 11.616779 161.641005 -2.876373 8.376345 -45.716831 -175.228163 21.629112 -140.660738 -7.438302 32.91097 -2.440876 -2.844933 -3.517845 -5.805211 -156.074137 -42.133165 88.822594 -153.789687 -1.834324 99.126142 -173.351696 -11.015733 94.476786 -159.558078 4.885607 138.917419 -177.128958 -30.508808 144.241454 -137.068878 0.965112 178.448361 -141.091505 -40.238868 179.725469 -10.027597 -45.061099 -9.374741 -168.556877 12.518276 -133.204762 156.149688 -6.457111 -157.367124 70.010789 7.778226 -30.884348 89.567357 24.864224 108.352997 -167.277422 -71.611599 -144.943053 -78.598656 -54.751469 -24.662659 -42.103621 -80.255077 -2.223158 19.203548 0.624583 -4.22499 5.536481 44.443121 -20.408789 45.308746 46.595969 -35.735461 23.758187 48.077385 -20.655286 -2.436849 -45.262888 2.511658 156.299626 -29.757536 -177.38743 2.30513 10.503197 0.947982 11.621689 -45.774734 -6.744858 -135.19428 72.321665 -28.771963 151.919331 9.867709 101.422004 52.153074 -3.844926 39.305564 59.320432 51.136732 -138.562142 -13.239993 2.152103 -6.658063 16.912561 -16.749798 5.338137 -30.62793 77.05243 -64.473536 -108.586118 73.227892 -154.04768
31.6186 58.082 -64.6331 5.75 -22.815004 -3.084757 -12.375085 22.217233 -66.419176 11.414794 2.280912 77.018364 -3.84384 15.268173 -6.008787 10.159626 -31.491973 -21.96154 14.49174 0.747007 5.87028 -10.850705 0.391172 -4.116963 2.213078 -36.190208 -11.900745 -120.625959 -9.92736 131.25329 -100.708728 -35.707396 -96.885107 14.311163 -31.64004 2.009373 78.067674 -56.278522 31.493021 -105.621868 8.750337 94.285335 -18.181616 -5.12872 20.341526 -69.786418 -85.921682 -145.159824 8.942607 -35.74966 -2.177818 1.133095 17.843248 7.644752 12.350814 -6.942765 1.536617 -7.582752 27.355719 -2.262675 -143.77159 -1.936996 -148.449415 -15.118637 -24.887787 -2.638811 -8.214557 -44.132695 2.165161 -104.062463 32.069779 75.426322 -175.33749 3.862299 -44.651798 159.559008 21.754347 -134.376356 -5.648208 -1.867815 2.612778 160.494437 -58.449214 -118.961492 -78.958213 -71.917984 -46.930006 36.863634 70.272701 -21.200324 163.692402 -7.584427 -137.364185 41.103763 58.233865 -37.661866 63.037812 -81.39116 80.784463 151.094652 5.895996 -171.374995 -124.351459 80.767683 89.077669 5.423352 36.057587 4.37555 11.774216 0.305711 5.840834 -38.869072 -57.574969 -180.0 -31.705207 -47.820456 65.648617 78.651221 45.598324 -2.91699 149.138423 74.311323 20.565124 -161.018887 54.963215 -22.786559 -44.050106 68.025937 -22.383135 32.488901 -22.235344 100.022923
